#!OML:ASF E:\Steps\Project 1\Capture day 1\Session 2\Subject.ASF
:FULLY-SPECIFIED
:DEGREES
364
root -0.059496 17.5597 19.2023 -161.634 -2.52987 189.772
lowerback -19.8477 -4.7959 -9.42007
upperback 0.907063 -4.35708 0.527495
thorax 13.0046 -2.74413 4.57705
lowerneck -2.39196 -0.545426 -3.66455
upperneck 12.1412 -0.823553 7.20382
head 4.04761 -0.006585 2.79136
rclavicle -3.02153e-014 3.81667e-014
rhumerus -46.5287 -11.5628 -78.0235
rradius 39.3366
rwrist -8.38497
rhand -8.92847 -51.5014
rfingers 7.12502
rthumb 17.0153 -440.776
lclavicle -3.02153e-014 3.81667e-014
lhumerus -31.4968 -10.3077 63.1066
lradius 35.023
lwrist 1.50142
lhand -21.2279 -12.3833
lfingers 7.12502
lthumb 5.15433 17.534
rfemur -49.1551 -9.53331 6.14349
rtibia 31.8932
rfoot -10.1125 -17.2805
rtoes -17.8054
lfemur -22.4491 -12.5321 -6.65007
ltibia 35.3735
lfoot -26.6617 3.74782
ltoes -36.7304
365
root -0.00949028 17.5397 19.1451 -161.783 -2.77188 190.076
lowerback -20.051 -4.88141 -9.60081
upperback 0.964652 -4.4109 0.626068
thorax 13.2239 -2.79309 4.76053
lowerneck -2.47982 -0.589971 -3.66762
upperneck 12.2175 -0.881483 7.16383
head 4.08879 -0.034663 2.77799
rclavicle 3.57812e-015 5.88403e-014
rhumerus -46.7241 -11.4991 -77.9126
rradius 39.2269
rwrist -8.47558
rhand -8.84755 -51.4713
rfingers 7.12502
rthumb 17.0932 -440.739
lclavicle 3.57812e-015 5.88403e-014
lhumerus -31.4602 -10.5316 62.9844
lradius 35.5902
lwrist 1.54282
lhand -20.8494 -12.3001
lfingers 7.12502
lthumb 5.51977 17.608
rfemur -48.5943 -9.21255 5.11694
rtibia 30.3004
rfoot -8.93528 -17.9112
rtoes -15.7852
lfemur -22.2333 -12.6853 -6.1279
ltibia 35.6248
lfoot -26.991 3.85301
ltoes -36.7724
366
root 0.0407451 17.5214 19.0917 -161.914 -3.0832 190.313
lowerback -20.1407 -4.95911 -9.84157
upperback 0.974361 -4.45355 0.69504
thorax 13.3226 -2.83618 4.9556
lowerneck -2.44978 -0.687739 -3.76132
upperneck 12.2192 -1.02116 7.30537
head 4.09271 -0.0993819 2.83159
rclavicle 1.90833e-014 1.27222e-014
rhumerus -46.913 -11.5329 -77.8208
rradius 39.0141
rwrist -8.28105
rhand -8.79233 -51.3162
rfingers 7.12502
rthumb 17.1463 -440.58
lclavicle 1.90833e-014 1.27222e-014
lhumerus -31.4334 -10.9498 62.9058
lradius 36.1065
lwrist 1.67324
lhand -21.0518 -12.2087
lfingers 7.12502
lthumb 5.32436 17.7045
rfemur -48.001 -8.97472 4.0518
rtibia 28.706
rfoot -7.73124 -18.5044
rtoes -14.7667
lfemur -22.1515 -12.8972 -5.65031
ltibia 36.0517
lfoot -27.3894 3.82953
ltoes -37.0433
367
root 0.0914461 17.5 19.0313 -162.091 -3.27669 190.582
lowerback -20.3505 -4.99013 -9.92505
upperback 1.04104 -4.44399 0.672654
thorax 13.5265 -2.84489 4.96687
lowerneck -2.38361 -0.766059 -3.8113
upperneck 12.3118 -1.14718 7.62679
head 4.1177 -0.138971 2.93559
rclavicle -5.96354e-015 -5.40694e-014
rhumerus -46.996 -11.5939 -77.8642
rradius 38.6459
rwrist -8.03353
rhand -8.70019 -51.0496
rfingers 7.12502
rthumb 17.235 -440.305
lclavicle -5.96354e-015 -5.40694e-014
lhumerus -31.365 -11.3274 62.6183
lradius 36.5842
lwrist 1.81684
lhand -21.285 -12.2831
lfingers 7.12502
lthumb 5.09914 17.6355
rfemur -47.3945 -8.61227 3.06191
rtibia 27.164
rfoot -6.53163 -18.999
rtoes -15.3338
lfemur -21.8514 -13.0452 -5.19334
ltibia 36.3153
lfoot -27.8158 3.44864
ltoes -35.7541
368
root 0.145385 17.479 18.9706 -162.279 -3.43433 190.832
lowerback -20.3882 -5.00656 -9.95336
upperback 1.03664 -4.45021 0.609207
thorax 13.5406 -2.84801 4.90577
lowerneck -2.43866 -0.821511 -3.78239
upperneck 12.5944 -1.2351 7.82817
head 4.2182 -0.153964 2.99329
rclavicle -2.90226e-014 -1.11319e-013
rhumerus -47.2565 -11.8785 -77.7695
rradius 38.3343
rwrist -7.80049
rhand -8.57523 -51.0928
rfingers 7.12502
rthumb 17.3553 -440.338
lclavicle -2.90226e-014 -1.11319e-013
lhumerus -31.4406 -11.7646 62.269
lradius 37.1148
lwrist 1.97061
lhand -21.4035 -12.383
lfingers 7.12502
lthumb 4.98471 17.5384
rfemur -46.8135 -8.23144 2.08815
rtibia 25.6852
rfoot -5.37388 -19.534
rtoes -16.3923
lfemur -21.5116 -13.1966 -4.76323
ltibia 36.5488
lfoot -28.1859 2.95808
ltoes -33.6982
